<?xml version="1.0" encoding="UTF-8"?>
<svg width="549px" height="549px" viewBox="0 0 549 549" version="1.1" xmlns="http://www.w3.org/2000/svg" xmlns:xlink="http://www.w3.org/1999/xlink">
    <!-- Generator: Sketch 41.2 (35397) - http://www.bohemiancoding.com/sketch -->
    <title>Fill 1</title>
    <desc>Created with Sketch.</desc>
    <defs></defs>
    <g stroke="none" stroke-width="1" fill="none" fill-rule="evenodd" opacity="0.0471014493">
        <g fill="#221F20">
            <path d="M227.868708,8.17537773 C195.823578,19.4518377 170.498208,41.4832077 154.560738,68.8563477 C140.588688,69.0210477 126.413508,71.2993977 112.463418,75.9658977 C94.8130677,81.8731377 79.1610777,91.0359477 65.9137077,102.542988 C97.0255377,64.6674777 138.733068,34.7634477 188.549328,18.0958077 C201.582588,13.7312577 214.720158,10.4756877 227.868708,8.17537773 M269.384088,4.53001773 C245.958258,42.9709977 204.448368,67.1873877 159.457818,68.6641977 C175.318428,42.5921877 200.083818,21.7576377 231.223098,11.3376177 C243.729318,7.14874773 256.564938,4.95823773 269.384088,4.53001773 M285.129408,105.018978 C282.450288,115.191948 278.524938,124.799448 273.715698,133.863438 C268.802148,124.821408 264.783468,115.219398 262.005528,105.046428 C252.936048,71.7715377 256.921788,37.0253277 273.128268,6.74248773 C289.631208,36.8990577 293.924388,71.6397777 285.129408,105.018978 M333.441408,18.4855977 C355.944918,29.7016677 374.303478,46.6987077 387.237918,67.5332577 C342.340698,66.3968277 300.699048,42.5757177 276.960288,4.44217773 C296.350968,4.90333773 315.571458,9.57532773 333.441408,18.4855977 M481.007118,100.500708 C472.634868,93.4240977 463.466568,87.1929477 453.408888,82.1750877 C434.062128,72.5291577 413.189148,67.6759977 392.184408,67.6430577 C378.805278,45.0956277 359.304798,26.7754977 335.280558,14.8018077 C329.938788,12.1391577 324.476238,9.87727773 318.936828,7.93930773 C381.802818,18.6008877 439.579578,51.3322677 481.007118,100.500708 M505.487028,134.966928 C460.370208,133.797558 418.783458,110.075268 395.017248,71.9087877 C439.672908,73.0232577 481.583568,96.5424177 505.487028,134.966928 M518.794788,163.196508 C530.949648,199.523838 526.563138,237.454248 509.774718,268.829598 C488.308818,229.345518 488.155098,181.297038 509.373948,141.675708 C513.063228,148.461348 516.263898,155.620308 518.794788,163.196508 M530.411628,188.543838 C550.395228,248.269548 548.182758,310.136358 528.374838,365.255958 C532.267248,342.977538 530.598288,319.946988 523.219728,297.893658 C520.299048,289.159068 516.565848,280.836228 512.102478,273.012978 C513.173028,271.091478 514.342398,269.235858 515.330598,267.253968 C528.907368,240.018078 533.035848,209.773668 527.490948,180.380208 C528.495618,183.086778 529.489308,185.793348 530.411628,188.543838 M510.400578,404.630238 C488.978598,365.228508 488.775468,317.284338 509.873538,277.706928 C513.573798,284.536488 516.801918,291.684468 519.316338,299.205768 C531.443748,335.456238 527.101158,373.298808 510.400578,404.630238 M415.566318,368.275458 C408.034038,360.809058 401.517408,352.590528 396.043878,343.806528 C439.832118,344.871588 482.143548,367.364118 506.733258,406.996428 C472.267038,406.304688 440.095638,392.585178 415.566318,368.275458 M434.830728,468.654618 C422.346468,472.832508 409.538298,475.110858 396.735618,475.544568 C420.101058,437.037708 461.665848,412.700538 506.683848,411.179808 C490.823238,437.317698 466.030398,458.212638 434.830728,468.654618 M359.958108,530.406138 C347.155428,534.693828 334.253928,537.927438 321.341448,540.222258 C353.150508,528.879918 378.305688,506.930898 394.149828,479.678538 C408.248148,479.480898 422.384898,477.158628 436.142838,472.558008 C453.293598,466.815468 468.813828,457.932648 482.149038,446.513448 C451.081128,484.130928 409.532808,513.820848 359.958108,530.406138 M279.474708,544.081728 C302.834658,505.624278 344.328078,481.336518 389.302158,479.788338 C373.441548,505.926228 348.648708,526.815678 317.454528,537.257658 C304.876938,541.468488 292.101708,543.664488 279.474708,544.081728 M263.537238,443.570808 C266.221848,433.353918 270.163668,423.702498 275.000358,414.605568 C295.966668,453.046548 297.657588,500.908368 275.692098,541.990038 C259.101318,511.806018 254.753238,477.004908 263.537238,443.570808 M161.351868,481.062018 C206.402808,482.198448 248.192688,505.898778 272.002818,544.131138 C227.292258,543.093528 185.310228,519.513978 161.351868,481.062018 M67.0885677,447.474198 C91.7770977,468.621678 123.476358,480.738108 156.493218,480.880848 C173.440848,509.335518 199.803828,530.175558 230.086668,540.644988 C166.797948,530.038308 108.658848,497.065368 67.0885677,447.474198 M43.3662777,413.677758 C88.3403577,414.726348 130.080828,438.552948 153.868998,476.735898 C109.213338,475.648878 67.2971877,452.080308 43.3662777,413.677758 M153.287058,345.146088 C147.912348,353.924598 141.516498,362.159598 134.094018,369.658938 C109.817238,394.188258 77.7172077,408.132858 43.3607877,409.247328 C67.5881577,369.477768 109.592148,346.644858 153.287058,345.146088 M30.0145977,385.376808 C17.8762077,349.082418 22.2407577,311.201418 38.9852577,279.842538 C60.6048777,319.365048 60.8354577,367.495878 39.6001377,407.221518 C35.8339977,400.348038 32.5894077,393.068298 30.0145977,385.376808 M18.0958077,359.958108 C-2.01955227,299.842608 0.352127733,237.553068 20.5168977,182.158968 C16.4488077,204.327588 17.7444477,227.786358 25.3865277,250.624758 C28.3346577,259.441698 32.1831477,267.698658 36.6410277,275.472498 C20.9835477,303.455028 15.0817977,336.762858 21.6588177,369.763248 C20.4345477,366.518658 19.2047877,363.274068 18.0958077,359.958108 M38.2441077,143.811318 C59.8856877,183.333828 60.1327377,231.464658 38.8974177,271.212258 C35.1202977,264.316818 31.8702177,257.026098 29.2899177,249.318138 C17.1515277,213.034728 21.5160777,175.159218 38.2441077,143.811318 M156.224208,202.455498 C152.496498,195.631428 149.290338,188.412078 146.737488,180.780978 C134.604588,144.519528 138.958158,106.665978 155.669718,75.3235677 C177.953628,116.158188 176.734848,163.893738 156.224208,202.455498 M167.775168,186.594888 C178.799088,156.229698 179.166918,122.202678 167.270088,90.7120377 C177.728538,103.234728 190.322598,113.918268 204.563658,122.076408 C219.106668,130.410228 234.550038,135.719058 250.185558,138.343278 C243.559128,139.529118 236.971128,141.209058 230.465478,143.383098 C205.518918,151.727898 184.058508,166.743048 167.775168,186.594888 M223.086918,186.572928 C203.191158,198.167808 181.500168,204.036618 159.946428,204.689928 C176.339568,177.651678 201.445338,157.432008 231.772098,147.286488 C244.327728,143.086638 257.207268,140.890638 270.081318,140.473398 C258.651138,159.326058 242.664258,175.159218 223.086918,186.572928 M283.218888,164.354898 C295.340808,200.577918 291.009198,238.393038 274.341558,269.713488 C270.624828,262.867458 267.385728,255.703008 264.865818,248.154258 C253.517988,214.242528 256.054368,177.942648 272.013798,145.935948 C272.551818,144.854418 273.210618,143.860728 273.776088,142.795668 C277.476348,149.592288 280.682508,156.767718 283.218888,164.354898 M333.990408,154.434468 C356.570778,165.694458 374.984238,182.762868 387.929658,203.701728 C387.874758,203.701728 387.819858,203.707218 387.770448,203.712708 C365.865348,203.180178 344.306118,197.239998 324.745248,186.062358 C305.074578,174.818838 288.961428,159.133908 277.372038,140.385558 C296.806638,140.824758 316.076538,145.502238 333.990408,154.434468 M380.249148,185.941578 C368.187618,171.447978 353.216388,159.419388 335.829558,150.750678 C323.449608,144.574428 310.438308,140.352618 297.168978,138.101718 C328.978038,132.447018 358.596588,115.740948 379.903278,89.6799177 C374.281518,105.002508 371.316918,121.247418 371.360838,137.657028 C371.410248,154.648578 374.566998,170.915448 380.249148,185.941578 M391.772658,201.214758 C381.445968,182.307198 375.544218,160.654638 375.478338,137.646048 C375.417948,115.587228 380.896968,93.8138877 391.245618,74.3737977 C394.934898,81.1868877 398.157528,88.3183977 400.666458,95.8177377 C412.793868,132.057228 408.451278,169.883328 391.772658,201.214758 M411.783708,176.037618 C408.797148,179.051628 405.980778,182.191908 403.307148,185.425518 C413.639328,157.108098 414.858108,125.255118 404.569848,94.5111177 C403.982418,92.7488277 403.219308,91.0853577 402.560508,89.3560077 C423.718968,114.741768 453.436338,131.788218 486.019488,137.245278 C457.993038,142.087458 432.206508,155.428158 411.783708,176.037618 M426.398088,198.991308 C416.186688,201.774738 405.838038,203.300958 395.516838,203.652318 C395.467428,203.652318 395.418018,203.646828 395.368608,203.646828 C400.770768,194.791458 407.221518,186.490578 414.709878,178.936338 C438.964698,154.456428 471.015318,140.533788 505.404678,139.408338 C487.545708,168.768858 459.689448,189.910848 426.398088,198.991308 M453.924948,218.184348 C441.588918,212.030058 428.638008,207.819228 415.423578,205.557348 C447.133818,199.869708 476.659038,183.180108 497.910828,157.195938 C486.573978,188.088168 486.639858,222.203028 498.091998,253.045848 C486.068898,238.700478 471.185508,226.787178 453.924948,218.184348 M395.654088,207.824718 C415.028298,208.291368 434.232318,212.963358 452.091288,221.868138 C474.638718,233.111658 493.035708,250.152618 505.975638,271.053048 C459.469848,269.889168 418.756008,244.909668 395.654088,207.824718 M380.891478,361.714908 C369.851088,392.036178 369.439338,426.008298 381.253818,457.476978 C370.844778,445.113498 358.344048,434.561718 344.234748,426.491418 C329.543508,418.091718 313.946418,412.717008 298.157178,410.131218 C304.838508,408.939888 311.486898,407.314848 318.041958,405.124338 C343.070868,396.752088 364.591668,381.665568 380.891478,361.714908 M325.524828,361.972938 C345.382158,350.378058 367.034718,344.498268 388.561008,343.817508 C372.162378,370.855758 347.062098,391.069938 316.735338,401.220948 C304.223628,405.404328 291.382518,407.688168 278.557878,408.116388 C289.977078,389.252748 305.952978,373.403118 325.524828,361.972938 M297.492888,274.182348 C304.179708,273.007488 310.861038,271.387938 317.492958,269.169978 C342.851268,260.682438 364.103058,245.486118 379.980138,226.232688 C374.545038,241.280778 371.728668,257.322558 371.805528,273.803538 C371.882388,290.290008 374.841498,306.309828 380.419338,321.319488 C359.200488,296.235678 329.647818,279.557058 297.492888,274.182348 M368.632308,341.769738 C353.117568,344.536698 337.827918,350.026698 323.449608,358.415418 C309.301878,366.677868 296.971338,377.174748 286.803858,389.411958 C296.927418,361.242768 298.063848,329.625858 287.852448,299.101458 C287.314428,297.498378 286.721508,295.933728 286.128588,294.363588 C298.146198,308.692488 313.018608,320.583828 330.251718,329.181168 C342.549318,335.308008 355.461798,339.502368 368.632308,341.769738 M332.090868,325.491888 C309.620298,314.292288 291.283698,297.328188 278.349258,276.532068 C322.933548,277.706928 364.761858,301.215108 388.632378,339.584718 C369.219738,339.134538 349.982778,334.413138 332.090868,325.491888 M403.054608,225.162138 C423.707988,250.086738 452.942238,267.616308 486.162228,273.271008 C470.323578,276.109338 455.006478,281.637768 441.023448,289.779438 C426.496908,298.234038 414.100488,308.956008 403.993398,321.231648 C414.627528,292.046808 415.127118,260.358528 405.124338,230.465478 C404.514948,228.653778 403.729878,226.935408 403.054608,225.162138 M394.072968,333.990408 C393.502008,335.126838 392.815758,336.175428 392.217348,337.295388 C381.682038,318.036468 376.021848,296.350968 375.923028,273.787068 C375.818718,251.195718 381.292248,229.444338 391.673838,210.075618 C395.418018,216.965568 398.679078,224.179428 401.220948,231.772098 C412.568778,265.683828 410.026908,301.989198 394.072968,333.990408 M285.969378,253.880328 C296.625468,224.679018 297.136038,192.963288 287.122278,163.042788 C286.589748,161.456178 286.002318,159.902508 285.414888,158.343348 C295.785498,170.723298 308.264268,181.384878 322.702968,189.636348 C337.174608,197.904288 352.524648,203.191158 368.072328,205.815378 C361.517268,207.001218 354.995148,208.659198 348.560868,210.816768 C323.142168,219.320778 301.857438,234.566508 285.969378,253.880328 M349.867488,214.720158 C362.357238,210.542268 375.165408,208.351758 387.962598,207.912558 C372.101988,233.995548 347.331108,254.846568 316.186338,265.266588 C303.564828,269.488398 290.745678,271.689888 278.074758,272.101638 C293.935368,246.002178 318.711738,225.145668 349.867488,214.720158 M265.387368,384.163518 C253.243488,347.869128 257.613528,309.977148 274.363518,278.618268 C278.124168,285.486258 281.379738,292.733058 283.949058,300.408078 C296.087448,336.702468 291.717408,374.588958 274.972908,405.942348 C271.206768,399.030438 267.934728,391.789128 265.387368,384.163518 M214.517028,394.072968 C192.035478,382.862388 173.693388,365.892798 160.753458,345.080208 C182.367588,345.546858 204.157398,351.256458 224.190408,362.730558 C244.086168,374.127798 259.946778,389.911548 271.267158,408.171288 C251.783148,407.748558 232.469328,403.021668 214.517028,394.072968 M169.290408,363.877968 C181.170768,377.795118 195.807108,389.346078 212.677878,397.756758 C225.200568,403.998888 238.365588,408.220698 251.794128,410.449638 C220.138788,416.054928 190.630038,432.618258 169.328838,458.443218 C174.840798,443.246898 177.728538,427.144728 177.668148,410.888838 C177.607758,394.589028 174.730998,378.739398 169.290408,363.877968 M114.500208,215.927958 C127.061328,211.722618 139.809108,209.597988 152.419638,209.175258 C141.214548,227.594208 125.403348,243.564618 105.491118,255.143028 C86.4243477,266.238318 64.8211977,272.387118 42.7953177,273.150228 C58.6614177,247.127628 83.3993577,226.331508 114.500208,215.927958 M133.276008,206.935338 C126.561738,208.115688 119.847468,209.795628 113.193588,212.024568 C87.7309677,220.539558 66.4187877,235.823718 50.5252377,255.186948 C61.6973877,224.305698 61.4997477,190.278678 49.9707477,159.529188 C71.5793877,185.321208 101.395578,201.659448 133.276008,206.935338 M145.068528,322.362588 C142.471758,319.299168 139.759698,316.318098 136.877448,313.457808 C116.224068,292.969128 90.2453877,279.826068 62.0926677,275.252898 C78.0520977,272.436528 93.4844877,266.897118 107.560848,258.706038 C122.016018,250.295358 134.368518,239.644758 144.448158,227.451468 C133.879908,256.592388 133.402278,288.203808 143.383098,318.041958 C143.877198,319.518768 144.525018,320.907738 145.068528,322.362588 M172.820478,274.786248 C172.935768,297.454458 167.434788,319.288188 156.992808,338.717298 C156.970848,338.678868 156.943398,338.640438 156.921438,338.607498 C153.133338,331.662648 149.850318,324.388398 147.286488,316.735338 C135.938658,282.818118 138.480528,246.518238 154.434468,214.517028 C155.016408,213.353148 155.713638,212.288088 156.323028,211.146168 C166.726578,230.053728 172.699698,251.733738 172.820478,274.786248 M168.867678,322.148478 C174.242388,307.149798 177.020328,291.173898 176.937978,274.764288 C176.850138,258.003318 173.748288,241.939578 168.159468,227.083638 C189.367338,252.233328 218.909028,268.972338 251.085918,274.374498 C244.432038,275.549358 237.783648,277.212828 231.184668,279.419808 C205.914198,287.874408 184.722798,302.993868 168.867678,322.148478 M262.796088,294.412998 C252.419988,322.768848 251.179248,354.676728 261.483978,385.475628 C262.016508,387.073218 262.719228,388.582968 263.306658,390.153108 C253.150158,378.025698 240.737268,367.462938 226.238178,359.162058 C211.492038,350.712948 195.818088,345.316278 179.957478,342.735978 C186.671748,341.561118 193.386018,339.930588 200.045388,337.701648 C225.024888,329.345868 246.507258,314.303268 262.796088,294.412998 M198.738768,333.803748 C186.150198,338.009088 173.374968,340.210578 160.742478,340.627818 C176.608578,314.566788 201.362988,293.743218 232.491288,283.323198 C245.068878,279.117858 257.822148,276.993228 270.443658,276.570498 C254.577558,302.598588 229.834128,323.394708 198.738768,333.803748 M179.452398,206.776128 C195.142818,204.047598 210.619128,198.607008 225.162138,190.130448 C239.397708,181.835058 251.788638,171.266808 262.000038,158.947248 C251.459238,188.066208 250.987098,219.655668 260.962428,249.466368 C261.538878,251.190228 262.291008,252.826248 262.927848,254.522658 C241.665078,229.087488 211.876338,212.183778 179.452398,206.776128 M270.613848,272.145558 C225.969168,271.064028 184.053018,247.511928 160.111128,209.125848 C204.766788,210.218358 246.693918,233.726538 270.613848,272.145558 M61.4558277,139.320498 C93.7864377,133.627368 123.168918,116.520528 144.080328,91.2226077 C133.764618,119.529048 132.551328,151.365558 142.834098,182.093088 C143.383098,183.740088 144.063858,185.304738 144.667758,186.918798 C123.888108,162.131448 94.6044477,144.766578 61.4558277,139.320498 M152.507478,204.689928 C108.823548,203.580948 66.6383877,181.148808 42.0596577,141.670218 C88.5654477,142.740768 129.334188,167.643408 152.507478,204.689928 M134.110488,342.999498 C102.334368,348.527928 72.6938577,365.102238 51.3048177,390.993078 C62.3946177,360.205158 62.1914877,326.298918 50.7283677,295.637268 C72.0405477,320.896758 101.752428,337.679688 134.110488,342.999498 M42.6306177,277.608108 C76.9046877,278.354748 109.416468,292.013868 133.978728,316.383978 C141.450618,323.800968 147.917838,331.964598 153.358428,340.677228 C108.614928,339.661578 66.5999577,316.082028 42.6306177,277.608108 M145.886538,458.761638 C124.739058,433.644888 95.1808977,416.796078 62.7898977,411.393918 C90.8218377,406.535268 116.602878,393.178098 137.020188,372.552168 C139.929888,369.609528 142.669398,366.546108 145.282638,363.400338 C135.032808,391.657368 133.846968,423.422508 144.102288,454.078668 C144.640308,455.676258 145.299108,457.196988 145.886538,458.761638 M157.097118,347.018178 C167.747718,366.375918 173.462808,388.193178 173.550648,410.899818 C173.632998,433.134318 168.093588,455.072358 157.602198,474.644208 C153.830568,467.759748 150.585978,460.469028 148.005678,452.772048 C135.834348,416.395308 140.253798,378.415488 157.097118,347.018178 M263.180388,430.921848 C261.818868,434.720928 260.594598,438.580398 259.556988,442.522218 C252.216858,470.455338 253.786998,499.310778 263.729388,525.805518 C242.587398,500.853468 213.128058,484.125438 180.857838,478.756218 C187.517208,477.586848 194.171088,475.972788 200.770068,473.760318 C226.089948,465.289248 247.308798,450.131358 263.180388,430.921848 M199.463448,469.856928 C186.858408,474.073248 174.061218,476.274738 161.412258,476.686488 C185.601198,436.933398 227.555778,414.078528 271.223238,412.535838 C255.362628,438.602358 230.597238,459.436908 199.463448,469.856928 M369.346008,477.806448 C337.267938,483.636828 308.137998,500.721708 287.380308,525.871398 C298.761078,494.452128 298.030908,460.650198 286.798368,430.559508 C298.783038,444.806058 313.611528,456.631518 330.773268,465.190428 C343.131258,471.350208 356.109618,475.550058 369.346008,477.806448 M332.612418,461.501148 C310.114398,450.285078 291.755838,433.293528 278.821398,412.458978 C300.402588,412.925628 322.170438,418.618758 342.192468,430.065408 C361.440408,441.072858 377.646888,456.801708 389.351568,475.604958 C369.873048,475.176738 350.564718,470.449848 332.612418,461.501148 M404.212998,362.011368 C406.881138,365.173608 409.692018,368.253498 412.667598,371.201628 C433.117848,391.465218 458.783598,404.525928 486.601428,409.208898 C454.495908,415.066728 425.338518,432.190038 404.591808,457.383648 C414.913008,429.071718 416.126298,397.235208 405.843528,366.502188 C405.332958,364.981458 404.767488,363.499158 404.212998,362.011368 M393.013398,473.255238 C376.483008,443.054748 372.184338,408.270108 381.006768,374.857968 C383.685888,364.712448 387.600258,355.126908 392.398518,346.090368 C396.137208,352.930908 399.381798,360.155748 401.940138,367.808808 C414.067548,404.064768 409.719468,441.912828 393.013398,473.255238 M498.487278,293.117358 C487.183368,324.009588 487.276698,358.107978 498.745308,388.928838 C477.197058,363.224658 447.479688,346.886418 415.714548,341.555628 C422.401368,340.369788 429.055248,338.744748 435.621288,336.548748 C460.655688,328.171008 482.187468,313.078998 498.487278,293.117358 M434.309178,332.645358 C421.753548,336.845208 408.868518,339.129048 395.999958,339.546288 C407.441118,320.644218 423.460938,304.767138 443.093178,293.336958 C462.253278,282.181278 483.960738,276.021498 506.085438,275.296818 C490.224828,301.374318 465.459438,322.219848 434.309178,332.645358 M285.370968,118.002828 C286.776408,114.099438 288.044598,110.124678 289.109658,106.067568 C296.521158,77.9532777 294.907098,48.9001977 284.800008,22.2462477 C305.881608,47.3959377 335.379378,64.2941577 367.737438,69.7676877 C361.116498,70.9590177 354.533988,72.6334677 348.039318,74.8075077 C323.103738,83.1468177 301.648818,98.1619677 285.370968,118.002828 M349.351428,78.7108977 C361.978428,74.4835977 374.786598,72.3534777 387.463008,71.9527077 C363.246618,111.733248 321.242628,134.577138 277.542228,136.081398 C293.935368,109.059618 319.030158,88.8509277 349.351428,78.7108977 M178.969278,70.7558877 C211.250478,65.0462877 240.583548,47.9668977 261.472998,22.7074077 C251.739228,49.3284177 250.427118,78.2277777 258.036258,106.127958 C259.156218,110.228988 260.495778,114.236688 261.961608,118.173018 C240.764718,92.9629377 211.179108,76.1909877 178.969278,70.7558877 M269.922108,136.147278 C248.357388,135.664158 226.611498,129.960048 206.611428,118.507908 C187.412898,107.511438 171.255828,91.8265077 159.573108,73.0726677 C204.184848,74.2310577 246.046098,97.7502177 269.922108,136.147278 M113.775528,79.8692877 C126.418998,75.6364977 139.254618,73.5063777 151.947498,73.1056077 C128.510688,111.541098 86.9843277,135.751998 41.9992677,137.212338 C57.8598777,111.134838 82.6252677,90.2893077 113.775528,79.8692877 M274.467828,548.506668 C303.251898,548.506668 332.508108,543.933498 361.270218,534.309528 C504.663528,486.332418 582.292128,330.636018 534.315018,187.237218 C486.332418,43.8439077 330.641508,-33.7846923 187.237218,14.1924177 C43.8439077,62.1695277 -33.7846923,217.871418 14.1924177,361.264728 C52.5510477,475.901418 159.748788,548.506668 274.467828,548.506668 Z" ></path>
        </g>
    </g>
</svg>
