<?xml version="1.0" encoding="utf-8"?>
<!-- Generator: Adobe Illustrator 19.2.1, SVG Export Plug-In . SVG Version: 6.00 Build 0)  -->
<svg version="1.1" xmlns="http://www.w3.org/2000/svg" xmlns:xlink="http://www.w3.org/1999/xlink" x="0px" y="0px"
	 viewBox="0 0 169.5 37.1" style="enable-background:new 0 0 169.5 37.1;" xml:space="preserve">
<style type="text/css">
	.st0{display:none;fill:#323C3C;}
	.st1{fill:#323C3C;}
	.st2{fill:#414D5B;}
	.st3{fill:#01C2A7;}
	.st4{fill:#00B0D5;}
</style>
<rect x="-677.9" y="-154.1" class="st0" width="1920" height="410.3"/>
<g>
	<g>
		<g>
			<path class="st1" d="M115.4,8.8h5.7l-4.5,21.7h-5.7L115.4,8.8z"/>
			<path class="st1" d="M123.2,8.8h10.1c5.9,0,6.8,2.4,6.8,4.7c0,2.9-1.5,4.8-4,5.4V19c1.9,0.5,3.1,2.3,3.1,4.3
				c0,4.4-3.5,7.3-9.9,7.3h-10.6L123.2,8.8z M125.2,26.1h4.4c2,0,3.9-0.4,3.9-2.8c0-2-1.8-2.2-3.3-2.2h-4L125.2,26.1z M127,17.4h4
				c2.3,0,3.4-0.7,3.4-2.4c0-1.6-1.6-1.7-2.9-1.7h-3.7L127,17.4z"/>
			<path class="st1" d="M143.4,8.8h7.8l1,15.5h0.1l7.5-15.5h7.8L163,30.6h-5.4l4.1-17.3h-0.1L153,30.6h-4.4l-1.3-17.3h-0.1L144,30.6
				h-5.4L143.4,8.8z"/>
		</g>
	</g>
	<g>
		<g>
			<path class="st1" d="M18.6,14.5h2.5L19.9,21c-0.1,0.5-0.4,1.5,0.2,1.5c1.1,0,2.5-1.2,2.5-4.1c0-4.3-2.9-6.6-7.1-6.6
				c-4.5,0-7.4,3.2-7.4,7.7c0,4.7,3.3,7.6,7.9,7.6c2,0,3.8-0.6,5.1-1.6h2.6c-1.9,2.6-4.7,4.1-8,4.1c-5.8,0-10.5-4.2-10.5-10
				S9.8,9.5,15.5,9.5c4.8,0,9.4,3.2,9.4,8.2c0,6.2-5.1,7.8-6.7,7.8c-1,0-1.6-0.5-1.7-1.4h-0.1c-0.5,0.7-1.4,1.4-2.6,1.4
				c-2.3,0-4.4-2.2-4.4-4.8c0-3.2,2.1-6.2,5.4-6.2c1.4,0,2.5,0.5,3.3,1.6L18.6,14.5z M15.4,17.2c-1.5,0-2.6,1.4-2.6,2.8
				c0,1.2,0.7,2.2,2,2.2c1.7,0,2.8-1.2,2.8-2.8C17.5,18.1,16.7,17.2,15.4,17.2z"/>
		</g>
	</g>
	<path class="st1" d="M29.3,15.1c1.1-4,5.1-6.9,10.1-6.9c5.7,0,9.5,1.5,9.5,5.5c0,2.8-1.6,8.5-2,10.5c-0.4,1.4-0.6,2.5-0.6,3.6
		c0,0.7,0.2,1.3,0.3,1.3h-6.7c-0.2,0-0.2,0-0.2-2h-0.1c-1.3,2-3.3,2.9-6.3,2.9c-3.9,0-6.7-1.4-6.7-5.7c0-5.5,5-6.6,10.3-7
		c2.3-0.1,5.5,0.1,5.5-2.6c0-1.2-0.8-2.1-2.9-2.1c-2.2,0-3.5,0.5-3.8,2.5C35.7,15.1,29.3,15.1,29.3,15.1z M36.1,26.1
		c4.1,0,4.9-4,5.2-6l0,0c-1.7,2-7.9-0.2-7.9,3.8C33.4,25.5,34.8,26.1,36.1,26.1z"/>
	<path class="st1" d="M55.1,31.1c0,1,0.3,1,0.8,1.4s1.2,0.4,2,0.4c4.2,0,4.3-3.8,5.1-6.8h-0.1c-1,1-3.5,2.5-5.4,2.5
		c-4.7,0-7.8-3.3-7.8-8c0-5.9,3.5-12.2,10-12.2C62.4,8.4,65,9,66,12h0.1l0.6-3h6.5l-3.5,16.7c-1.8,8.7-4.6,11.6-12.2,11.6
		c-4.4,0-9.2-2.3-9.1-6.3L55.1,31.1L55.1,31.1z M64.7,17.8c0-2.4-1-4.2-3.2-4.2c-3.5,0-5,3.4-5,6.5c0,2.2,0.9,4,3.3,4
		C63.1,24.1,64.7,20.9,64.7,17.8z"/>
	<polygon class="st1" points="75,9.1 81.7,9.1 77.4,29.1 70.6,29.1 	"/>
	<polygon class="st2" points="82.3,6.1 75.5,6.1 76.6,2.1 83.4,2.1 	"/>
	<polygon class="st2" points="68.1,2.1 68.1,2.1 61.3,2.1 60.2,6.1 67,6.1 67,6.1 73.8,6.1 74.8,2.1 	"/>
	<path class="st1" d="M85.2,2.1H92l-5.9,27h-6.8L85.2,2.1z"/>
	<path class="st1" d="M96.4,20.1c0,2-0.1,1.2-0.1,1.8c0.2,2.2,1.4,3.9,3.7,3.9c2.3,0,3.4-0.7,4-1.7h6.6c-1.6,5-5.8,6.5-10.9,6.5
		c-5.7,0-9.9-3.1-9.9-9.2c0-7.3,4.8-13,12.3-13c5.4,0,9.5,2.6,9.5,8.6c0,1.2-0.1,3.1-0.2,3.1C111.4,20.1,96.4,20.1,96.4,20.1z
		 M105,17.1c0.2-2-0.9-4.2-3.2-4.2c-2.8,0-4.3,2.2-5,4.2H105z"/>
	<polygon class="st3" points="53,2.1 53,2.1 46.2,2.1 46.2,2.1 39.4,2.1 38.4,6.1 45.1,6.1 45.1,6.1 51.9,6.1 51.9,6.1 58.7,6.1 
		59.8,2.1 	"/>
	<polygon class="st4" points="31.2,2.1 31.2,2.1 24.5,2.1 24.5,2.1 17.7,2.1 17.7,2.1 6.5,2.1 5.4,6.1 16.6,6.1 16.6,6.1 23.4,6.1 
		23.4,6.1 30.2,6.1 30.2,6.1 36.9,6.1 38,2.1 	"/>
</g>
</svg>
