<svg id="1f41239f-530f-4040-bdff-e99058623a46" data-name="Layer 1" xmlns="http://www.w3.org/2000/svg" viewBox="0 0 24 24"><defs><style>.\34 dd6e69c-2e26-48d9-82cf-a5356eba40b1{fill:#3b6caa;}</style></defs><title>att-icons</title><g id="ff10be72-e194-4151-a7b7-6360e60ad10f" data-name="Icon"><path class="4dd6e69c-2e26-48d9-82cf-a5356eba40b1" d="M8.7,2.2A6.5,6.5,0,1,1,2.2,8.7,6.6,6.6,0,0,1,8.7,2.2M8.7,0a8.7,8.7,0,1,0,8.7,8.7A8.7,8.7,0,0,0,8.7,0h0Z"/><rect class="4dd6e69c-2e26-48d9-82cf-a5356eba40b1" x="17.3" y="15.8" width="4.6" height="7.71" transform="translate(-8.1 19.6) rotate(-45)"/><path class="4dd6e69c-2e26-48d9-82cf-a5356eba40b1" d="M8.7,2.2A6.5,6.5,0,1,1,2.2,8.7,6.6,6.6,0,0,1,8.7,2.2M8.7,0a8.7,8.7,0,1,0,8.7,8.7A8.7,8.7,0,0,0,8.7,0h0Z"/><rect class="4dd6e69c-2e26-48d9-82cf-a5356eba40b1" x="17.3" y="15.8" width="4.6" height="7.71" transform="translate(-8.1 19.6) rotate(-45)"/></g></svg>