<svg data-name="Layer 1" xmlns="http://www.w3.org/2000/svg" viewBox="0 0 211 332.8"><defs><style>.\33 8e68e59-4090-4460-87b0-1a6f02b2b5bd{fill:#4c4d53;}.a264e7da-0676-4c97-8d3e-c27cc03965e1{fill:#999;}.\33 e74873a-a007-47a1-997a-6bd896e69612{fill:#b2d1e2;}</style></defs><title>att-icons</title><path class="38e68e59-4090-4460-87b0-1a6f02b2b5bd" d="M181,278.1V255.3c0-23.2-11.1-37.5-29.5-37.5H105V190.9c15-1.3,25.1-13,25.1-27.3S120,137.5,105,136.3V54.7c15-1.3,25.4-13,25.4-27.3A27.2,27.2,0,0,0,103.3,0,27.6,27.6,0,0,0,75.8,27.4C75.8,41.5,88,53.1,100,54.6v81.8c-12,1.6-24.3,13.2-24.3,27.2S88,189.4,100,190.9v26.9H66.5c-21.4,0-41.5,17.9-41.5,37.5v22.8C10,279.6.6,291.3,0.6,305.3a27.5,27.5,0,0,0,55.1,0c0-14.3-11.6-26-24.6-27.3V255.3c0-16.5,17.3-31.5,35.5-31.5h85c18.3,0,24.5,15.8,24.5,31.5v22.8a27.1,27.1,0,0,0-24.3,27.2,27.5,27.5,0,0,0,27.5,27.4,27.1,27.1,0,0,0,27-27.4C206.2,291.1,196,279.3,181,278.1Z"/><circle class="a264e7da-0676-4c97-8d3e-c27cc03965e1" cx="103.6" cy="27.4" r="21.9"/><circle class="3e74873a-a007-47a1-997a-6bd896e69612" cx="103.6" cy="163.6" r="21.9"/><circle class="a264e7da-0676-4c97-8d3e-c27cc03965e1" cx="27.9" cy="305.3" r="21.9"/><circle class="a264e7da-0676-4c97-8d3e-c27cc03965e1" cx="179.3" cy="305.3" r="21.9"/></svg>
