<?xml version="1.0" encoding="UTF-8"?>
<svg width="18px" height="19px" viewBox="0 0 18 19" version="1.1" xmlns="http://www.w3.org/2000/svg" xmlns:xlink="http://www.w3.org/1999/xlink">
    <!-- Generator: Sketch 41.2 (35397) - http://www.bohemiancoding.com/sketch -->
    <title>Calendar</title>
    <desc>Created with Sketch.</desc>
    <defs></defs>
    <g stroke="none" stroke-width="1" fill="none" fill-rule="evenodd">
        <g id="New-Iteration" transform="translate(-281.000000, -401.000000)" fill="#325C80">
            <g id="Add-Team-member">
                <g id="drop-down-copy" transform="translate(20.000000, 370.000000)">
                    <g id="Calendar-icon-(white)---18px" transform="translate(261.000000, 31.000000)">
                        <path d="M10.797,10.0776 L12.957,10.0776 L12.957,8.6376 L10.797,8.6376 L10.797,10.0776 Z M10.797,12.2376 L12.957,12.2376 L12.957,10.7976 L10.797,10.7976 L10.797,12.2376 Z M10.797,14.3966 L12.957,14.3966 L12.957,12.9566 L10.797,12.9566 L10.797,14.3966 Z M7.918,10.0776 L10.078,10.0776 L10.078,8.6376 L7.918,8.6376 L7.918,10.0776 Z M7.918,12.2376 L10.078,12.2376 L10.078,10.7976 L7.918,10.7976 L7.918,12.2376 Z M7.918,14.3966 L10.078,14.3966 L10.078,12.9566 L7.918,12.9566 L7.918,14.3966 Z M5.038,10.0776 L7.198,10.0776 L7.198,8.6376 L5.038,8.6376 L5.038,10.0776 Z M5.038,12.2376 L7.198,12.2376 L7.198,10.7976 L5.038,10.7976 L5.038,12.2376 Z M5.038,14.3966 L7.198,14.3966 L7.198,12.9566 L5.038,12.9566 L5.038,14.3966 Z M4.319,15.1166 L13.677,15.1166 L13.677,7.9186 L4.319,7.9186 L4.319,15.1166 Z"></path>
                        <path d="M1.44,17.2756 L16.556,17.2756 L16.556,5.7586 L1.44,5.7586 L1.44,17.2756 Z M4.319,2.1596 C4.319,1.7276 4.607,1.4396 5.039,1.4396 C5.471,1.4396 5.759,1.7276 5.759,2.1596 L5.759,4.3186 L4.319,4.3186 L4.319,2.1596 Z M12.237,2.1596 C12.237,1.7276 12.525,1.4396 12.957,1.4396 C13.389,1.4396 13.677,1.7276 13.677,2.1596 L13.677,4.3186 L12.237,4.3186 L12.237,2.1596 Z M15.116,2.8796 L15.116,2.1596 C15.116,0.9356 14.181,-0.0004 12.957,-0.0004 C11.733,-0.0004 10.797,0.9356 10.797,2.1596 L10.797,2.8796 L7.198,2.8796 L7.198,2.1596 C7.198,0.9356 6.263,-0.0004 5.039,-0.0004 C3.815,-0.0004 2.879,0.9356 2.879,2.1596 L2.879,2.8796 L0,2.8796 L0,18.7156 L17.996,18.7156 L17.996,2.8796 L15.116,2.8796 Z"></path>
                    </g>
                </g>
            </g>
        </g>
    </g>
</svg>
