<svg id="163346d6-f910-462a-bec1-320ed82449cb" data-name="Layer 1" xmlns="http://www.w3.org/2000/svg" viewBox="0 0 211 332.8"><defs><style>.\39 180b409-d369-4af8-bc61-fcdc8b6b0387{fill:#4c4d53;}.\37 467cec0-5c17-4961-9399-796bea71fa76{fill:#999;}.ec3ac712-4f45-4183-b793-fdac5c98315f{fill:#b2d1e2;}</style></defs><title>att-icons</title><path class="9180b409-d369-4af8-bc61-fcdc8b6b0387" d="M181,278.1V255.3c0-23.2-11.1-37.3-29.5-37.3H105V190.9c15-1.3,25.1-13,25.1-27.3S120,137.5,105,136.3V54.7c15-1.3,25.4-13,25.4-27.3A27.2,27.2,0,0,0,103.3,0,27.6,27.6,0,0,0,75.8,27.4C75.8,41.5,88,53.1,100,54.6v81.8c-12,1.6-24.3,13.2-24.3,27.2S88,189.4,100,190.9V218H66.5C45.1,218,25,235.7,25,255.3v22.8C10,279.6.6,291.3,0.6,305.3a27.5,27.5,0,0,0,55.1,0c0-14.3-11.6-26-24.6-27.3V255.3C31,238.8,48.3,224,66.5,224h85c18.3,0,24.5,15.5,24.5,31.3v22.8a27.1,27.1,0,0,0-24.3,27.2,27.5,27.5,0,0,0,27.5,27.4,27.1,27.1,0,0,0,27-27.4C206.2,291.1,196,279.3,181,278.1Z"/><circle class="7467cec0-5c17-4961-9399-796bea71fa76" cx="103.6" cy="27.4" r="21.9"/><circle class="ec3ac712-4f45-4183-b793-fdac5c98315f" cx="103.6" cy="163.6" r="21.9"/><circle class="7467cec0-5c17-4961-9399-796bea71fa76" cx="27.9" cy="305.3" r="21.9"/><circle class="7467cec0-5c17-4961-9399-796bea71fa76" cx="179.3" cy="305.3" r="21.9"/></svg>