<?xml version="1.0" encoding="UTF-8"?>
<svg width="22px" height="22px" viewBox="0 0 22 22" version="1.1" xmlns="http://www.w3.org/2000/svg" xmlns:xlink="http://www.w3.org/1999/xlink">
    <!-- Generator: Sketch 42 (36781) - http://www.bohemiancoding.com/sketch -->
    <title>Team reset</title>
    <desc>Created with Sketch.</desc>
    <defs></defs>
    <g stroke="none" stroke-width="1" fill="none" fill-rule="evenodd">
        <g id="Team-reset" fill-rule="nonzero" fill="#4178BE">
            <path d="M15.8571429,11.75 L10.1428571,11.75 C9.42285714,11.75 9,12.146 9,12.875 L9,14 L17,14 L17,12.875 C17,12.146 16.5771429,11.75 15.8571429,11.75 Z M12.28,11.10875 C14.5737143,11.609375 16.5714286,9.642875 16.0628571,7.385 C15.8068571,6.24875 14.8742857,5.3301875 13.7188571,5.07875 C11.4262857,4.578125 9.42857143,6.5440625 9.93714286,8.8025 C10.1931429,9.93875 11.1257143,10.85675 12.28,11.10875 Z"></path>
            <path d="M13,1 C8.03,1 4,5.167 4,10.136 L4,17 L1.5,14.5 L0,16 L5,21 L10,16 L8.5,14.5 L6,17 L6,10.136 C6,6.27 9.133,3 13,3 C16.867,3 20.013,6.146 20.013,10.013 C20.013,11.981 19.178,13.871 17.723,15.198 L19.071,16.676 C20.94,14.97 22,12.53 22,10 C22,5.03 17.97,1 13,1 Z"></path>
        </g>
    </g>
</svg>
