<svg id="729f9186-b736-4e31-af2b-f7a052cf3a30" data-name="Layer 1" xmlns="http://www.w3.org/2000/svg" viewBox="0 0 24 24"><defs><style>.\30 dda3827-b3a9-4d43-861d-177c94428334{fill:#3b6caa;}</style></defs><title>Team Search</title><g id="a77a3847-ca06-41a7-bc26-386585dfe575" data-name="Icon"><path class="0dda3827-b3a9-4d43-861d-177c94428334" d="M8.7,2.2A6.5,6.5,0,1,1,2.2,8.7,6.6,6.6,0,0,1,8.7,2.2M8.7,0a8.7,8.7,0,1,0,8.7,8.7A8.7,8.7,0,0,0,8.7,0h0Z"/><rect class="0dda3827-b3a9-4d43-861d-177c94428334" x="17.3" y="15.8" width="4.6" height="7.71" transform="translate(-8.1 19.6) rotate(-45)"/><path class="0dda3827-b3a9-4d43-861d-177c94428334" d="M8.7,2.2A6.5,6.5,0,1,1,2.2,8.7,6.6,6.6,0,0,1,8.7,2.2M8.7,0a8.7,8.7,0,1,0,8.7,8.7A8.7,8.7,0,0,0,8.7,0h0Z"/><rect class="0dda3827-b3a9-4d43-861d-177c94428334" x="17.3" y="15.8" width="4.6" height="7.71" transform="translate(-8.1 19.6) rotate(-45)"/></g></svg>