<svg id="Layer_1" data-name="Layer 1" xmlns="http://www.w3.org/2000/svg" viewBox="0 0 22 22"><defs><style>.cls-1{fill:#3e76c0;}</style></defs><path class="cls-1" d="M14.75,12.5A2.24,2.24,0,0,0,12.64,14H9.36a2.39,2.39,0,0,0-.11-.23l4.51-4.51a2.2,2.2,0,0,0,1,.24,2.25,2.25,0,1,0-2.11-3H9.36a2.25,2.25,0,1,0,0,1.5h3.28c0,.06.06.12.09.18L8.19,12.72a2.19,2.19,0,0,0-.94-.22,2.25,2.25,0,1,0,2.11,3h3.28a2.25,2.25,0,1,0,2.11-3ZM7.25,8.37A1.13,1.13,0,1,1,8.38,7.25,1.13,1.13,0,0,1,7.25,8.37Zm7.5-2.25a1.13,1.13,0,1,1-1.12,1.13A1.13,1.13,0,0,1,14.75,6.12Zm-7.5,9.75a1.13,1.13,0,1,1,1.13-1.12A1.13,1.13,0,0,1,7.25,15.87Z"/><path class="cls-1" d="M11,1A10,10,0,1,1,1,11,10,10,0,0,1,11,1m0-1A11,11,0,1,0,22,11,11,11,0,0,0,11,0Z"/></svg>
