<?xml version="1.0" encoding="UTF-8"?>
<svg width="22px" height="22px" viewBox="0 0 22 22" version="1.1" xmlns="http://www.w3.org/2000/svg" xmlns:xlink="http://www.w3.org/1999/xlink">
    <!-- Generator: Sketch 42 (36781) - http://www.bohemiancoding.com/sketch -->
    <title>Group 3</title>
    <desc>Created with Sketch.</desc>
    <defs></defs>
    <g id="Symbols" stroke="none" stroke-width="1" fill="none" fill-rule="evenodd">
        <g id="Settings---22" fill="#047CC0">
            <g id="Group-3">
                <path d="M11,20.566416 C5.73433584,20.566416 1.43358396,16.2656642 1.43358396,11 C1.43358396,5.73433584 5.70676692,1.43358396 11,1.43358396 C16.2656642,1.43358396 20.566416,5.70676692 20.566416,11 C20.566416,16.2932331 16.2656642,20.566416 11,20.566416 M11,0 C4.93483709,0 0,4.93483709 0,11 C0,17.0651629 4.93483709,22 11,22 C17.0651629,22 22,17.0651629 22,11 C22,4.93483709 17.0651629,0 11,0" id="Fill-4-Copy"></path>
                <g id="Group-2" transform="translate(3.000000, 3.000000)">
                    <path d="M7.28148416,14.7605634 L9.32581252,14.7605634 L9.83115211,12.5746479 L10.1297619,12.4619718 C10.6351015,12.2816901 11.0945011,12.0338028 11.5079608,11.7183099 L11.7606306,11.515493 L13.9887188,12.2366197 L15.0223679,10.5690141 L13.2766493,9.05915493 L13.3225893,8.74366197 C13.3685293,8.47323944 13.3914993,8.22535211 13.3914993,8 C13.3914993,7.77464789 13.3685293,7.52676056 13.3225893,7.25633803 L13.2766493,6.89577465 L15.0223679,5.38591549 L13.9887188,3.71830986 L11.7606306,4.43943662 L11.5079608,4.23661972 C11.0945011,3.92112676 10.6351015,3.67323944 10.1297619,3.49295775 L9.83115211,3.38028169 L9.32581252,1.1943662 L7.28148416,1.1943662 L6.77614456,3.38028169 L6.4775348,3.49295775 C5.97219521,3.67323944 5.51279558,3.92112676 5.09933591,4.23661972 L4.84666611,4.43943662 L2.6185779,3.71830986 L1.56195875,5.4084507 L3.30767735,6.91830986 L3.26173738,7.23380282 C3.21579742,7.50422535 3.19282744,7.75211268 3.19282744,7.97746479 C3.19282744,8.2028169 3.21579742,8.45070423 3.26173738,8.72112676 L3.30767735,9.03661972 L1.56195875,10.5464789 L2.59560792,12.2140845 L4.82369613,11.4929577 L5.07636593,11.6957746 C5.48982559,12.0112676 5.94922523,12.2591549 6.45456482,12.4394366 L6.75317458,12.5521127 L7.28148416,14.7605634 Z M10.2905517,15.9549296 L6.31674493,15.9549296 L5.74249539,13.4535211 C5.35200571,13.2732394 4.96151602,13.0704225 4.6169663,12.8450704 L2.09026832,13.656338 L0.0229699816,10.3211268 L2.02135838,8.58591549 C1.9983884,8.38309859 1.97541841,8.18028169 1.97541841,7.97746479 C1.97541841,7.77464789 1.9983884,7.5943662 2.02135838,7.36901408 L0,5.63380282 L2.06729834,2.29859155 L4.59399631,3.10985915 C4.93854604,2.86197183 5.32903572,2.65915493 5.71952541,2.50140845 L6.31674493,0 L10.2905517,0 L10.8648013,2.50140845 C11.255291,2.65915493 11.6457807,2.88450704 11.9903304,3.10985915 L14.5170284,2.29859155 L16.5843267,5.63380282 L14.5629683,7.36901408 C14.5859383,7.57183099 14.6089083,7.77464789 14.6089083,7.97746479 C14.6089083,8.15774648 14.5859383,8.36056338 14.5629683,8.58591549 L16.5843267,10.3211268 L14.5170284,13.656338 L11.9903304,12.8450704 C11.6457807,13.0929577 11.255291,13.2957746 10.8648013,13.4535211 L10.2905517,15.9549296 Z" id="Fill-1"></path>
                    <path d="M8.29216335,6.62535211 C7.53415395,6.62535211 6.91396445,7.23380282 6.91396445,7.97746479 C6.91396445,8.72112676 7.53415395,9.32957746 8.29216335,9.32957746 C9.05017274,9.32957746 9.67036224,8.72112676 9.67036224,7.97746479 C9.67036224,7.23380282 9.05017274,6.62535211 8.29216335,6.62535211 M8.29216335,10.5239437 C6.86802449,10.5239437 5.69655543,9.37464789 5.69655543,7.97746479 C5.69655543,6.58028169 6.86802449,5.43098592 8.29216335,5.43098592 C9.7163022,5.43098592 10.8877713,6.58028169 10.8877713,7.97746479 C10.8877713,9.37464789 9.73927219,10.5239437 8.29216335,10.5239437" id="Fill-3"></path>
                </g>
            </g>
        </g>
    </g>
</svg>
