<svg id="4b46133a-532f-429f-807b-d2f29a6232c3" data-name="Layer 1" xmlns="http://www.w3.org/2000/svg" viewBox="0 0 201.2 166.8"><defs><style>.\37 64f3ab7-f29f-43ff-ac19-d70c57db505e{fill:#4c4d53;}.\38 21d5f49-2858-4574-9232-a9847a7e5ba9{fill:#8cc63f;}.a8f4bd9b-227f-47ef-a5c6-d481df40bd9f{fill:#999;}</style></defs><title>att-icons</title><path class="764f3ab7-f29f-43ff-ac19-d70c57db505e" d="M131,121.3V104.7c0-16.8-8.2-27.2-21.5-27.2H76V40.9A20.2,20.2,0,0,0,94.3,21.1,19.8,19.8,0,0,0,74.5,1.2,20.1,20.1,0,0,0,54.4,21.1,19.8,19.8,0,0,0,72,40.9V77.5H47.7c-15.5,0-30.7,13-30.7,27.2v16.6A19.7,19.7,0,0,0-.5,141.1a20,20,0,0,0,20,19.9,19.8,19.8,0,0,0,19.7-19.9A20.2,20.2,0,0,0,21,121.3V104.7c0-12,13.5-23.2,26.7-23.2h61.8c13.3,0,17.5,11.7,17.5,23.2v16.6a19.7,19.7,0,0,0-17.5,19.8,20,20,0,0,0,20,19.9,19.8,19.8,0,0,0,19.7-19.9A20.2,20.2,0,0,0,131,121.3Z"/><g id="ce5ba3fc-847d-4d97-b7b8-cf58d199fb9f" data-name="Arrow 26"><polygon class="764f3ab7-f29f-43ff-ac19-d70c57db505e" points="156.3 14.1 137.9 14.1 137.9 5 107.3 22.6 137.9 40.3 137.9 31.1 156.3 31.1 156.3 14.1"/></g><circle class="821d5f49-2858-4574-9232-a9847a7e5ba9" cx="74.6" cy="21.1" r="15.9"/><circle class="a8f4bd9b-227f-47ef-a5c6-d481df40bd9f" cx="19.6" cy="141.1" r="15.9"/><circle class="a8f4bd9b-227f-47ef-a5c6-d481df40bd9f" cx="129.6" cy="141.1" r="15.9"/></svg>