<?xml version="1.0" encoding="UTF-8"?>
<svg width="108px" height="129px" viewBox="0 0 108 129" version="1.1" xmlns="http://www.w3.org/2000/svg" xmlns:xlink="http://www.w3.org/1999/xlink">
    <!-- Generator: Sketch 41.2 (35397) - http://www.bohemiancoding.com/sketch -->
    <title>Page 1</title>
    <desc>Created with Sketch.</desc>
    <defs></defs>
    <g stroke="none" stroke-width="1" fill="none" fill-rule="evenodd">
        <g transform="translate(-38.000000, -96.000000)">
            <g transform="translate(39.000000, 97.000000)">
                <path d="M53.394856,23.5563434 C47.0071713,23.5563434 41.8284212,18.3840887 41.8284212,12.0029377 C41.8284212,5.62178679 47.0071713,0.449532075 53.394856,0.449532075 C59.7825408,0.449532075 64.9600915,5.62178679 64.9600915,12.0029377 C64.9600915,18.3840887 59.7825408,23.5563434 53.394856,23.5563434 Z" stroke="#979797" stroke-width="2" fill="#B2D1E2"></path>
                <path d="M23.5809431,115.351584 C23.5809431,121.732735 18.4033923,126.90499 12.0157076,126.90499 C5.62802282,126.90499 0.449272759,121.732735 0.449272759,115.351584 C0.449272759,108.970433 5.62802282,103.798178 12.0157076,103.798178 C18.4033923,103.798178 23.5809431,108.970433 23.5809431,115.351584" stroke="#979797" stroke-width="2" fill="#999999"></path>
                <path d="M105.940819,115.351584 C105.940819,121.732735 100.763269,126.90499 94.3755838,126.90499 C87.987899,126.90499 82.8091489,121.732735 82.8091489,115.351584 C82.8091489,108.970433 87.987899,103.798178 94.3755838,103.798178 C100.763269,103.798178 105.940819,108.970433 105.940819,115.351584" fill="#8CC63F"></path>
                <path d="M105.940819,115.351584 C105.940819,121.732735 100.763269,126.90499 94.3755838,126.90499 C87.987899,126.90499 82.8091489,121.732735 82.8091489,115.351584 C82.8091489,108.970433 87.987899,103.798178 94.3755838,103.798178 C100.763269,103.798178 105.940819,108.970433 105.940819,115.351584 Z" stroke="#4C4D53" stroke-width="2"></path>
                <path d="M23.5809431,115.351584 C23.5809431,121.732735 18.4033923,126.90499 12.0157076,126.90499 C5.62802282,126.90499 0.449272759,121.732735 0.449272759,115.351584 C0.449272759,108.970433 5.62802282,103.798178 12.0157076,103.798178 C18.4033923,103.798178 23.5809431,108.970433 23.5809431,115.351584 Z" stroke="#4C4D53" stroke-width="2"></path>
                <path d="M64.9600915,12.0029377 C64.9600915,18.3840887 59.7825408,23.5563434 53.394856,23.5563434 C47.0071713,23.5563434 41.8284212,18.3840887 41.8284212,12.0029377 C41.8284212,5.62178679 47.0071713,0.449532075 53.394856,0.449532075 C59.7825408,0.449532075 64.9600915,5.62178679 64.9600915,12.0029377 Z" stroke="#4C4D53" stroke-width="2"></path>
                <path d="M95.1063416,103.951896 L95.1063416,94.4532547 C95.1063416,84.5005283 84.9311412,75.7962358 74.9682239,75.7962358 L30.0805263,75.7962358 C20.117609,75.7962358 12.3518826,84.5005283 12.3518826,94.4532547 L12.3518826,103.951896" stroke="#4C4D53" stroke-width="2"></path>
                <path d="M52.6293706,23.6783113 L52.6293706,75.1971792" id="Stroke-15" stroke="#4C4D53" stroke-width="2"></path>
            </g>
        </g>
    </g>
</svg>
