<svg id="b4b0cc2b-0110-48f9-95ef-4ba997ce7520" data-name="Layer 1" xmlns="http://www.w3.org/2000/svg" viewBox="0 0 24 24"><defs><style>.ed2707ed-96db-4fb0-b2d9-e09569396061{fill:#3b6caa;}</style></defs><title>Filter Trends</title><path class="ed2707ed-96db-4fb0-b2d9-e09569396061" d="M18.5,6.2H5.5V7.9l5.2,5.2v6l2.6-2.6V15.1a1.7,1.7,0,1,0,1.3-2.9H14.1l4.4-4.4V6.2Zm-3,7.8a0.9,0.9,0,1,1-.9-0.9A0.9,0.9,0,0,1,15.5,14Zm-2.8-1.5-0.3.3v3.5l-0.9.9V12.8l-0.3-.3L6.7,7.9H17.3Z"/><path id="a7981b09-930e-4109-885c-94779fae4517" data-name="&lt;Compound Path&gt;" class="ed2707ed-96db-4fb0-b2d9-e09569396061" d="M12,0.1A11.9,11.9,0,1,0,23.9,12,12,12,0,0,0,12,.1Zm0,22.3A10.4,10.4,0,1,1,22.4,12,10.4,10.4,0,0,1,12,22.4Z"/></svg>