<svg id="47939b18-7ae5-47a5-b8e1-b717927f446d" data-name="Layer 1" xmlns="http://www.w3.org/2000/svg" viewBox="0 0 24 24"><defs><style>.e87ba185-b48d-4676-a0a7-b960673911c8{fill:#3b6caa;}</style></defs><title>att-icons</title><path class="e87ba185-b48d-4676-a0a7-b960673911c8" d="M14.5,0.1L9.9,4.6l4.5,4.5,1-1L12.5,5.3h2.7a6.8,6.8,0,0,1,0,13.6v1.4a8.1,8.1,0,1,0,0-16.3H12.5L15.4,1Z"/><path class="e87ba185-b48d-4676-a0a7-b960673911c8" d="M9.5,24l4.5-4.5L9.5,14.9l-1,1,2.9,2.9H8.7a6.8,6.8,0,0,1,0-13.6V3.9a8.1,8.1,0,1,0,0,16.3h2.7L8.6,23Z"/><circle class="e87ba185-b48d-4676-a0a7-b960673911c8" cx="12" cy="12" r="2"/></svg>