<svg id="0b8fefea-f01c-483b-8565-74b11114a6d9" data-name="Layer 1" xmlns="http://www.w3.org/2000/svg" viewBox="0 0 211 166.8"><defs><style>.cfd48f2b-bc29-4f12-bbfd-0f87ec91ecc1{fill:#4c4d53;}.\36 8a8868d-d5fe-46f8-af97-ad0cfbc0230e{fill:#999;}.ce0fe990-689e-4964-bdbf-19582dcd087c{fill:#8cc63f;}</style></defs><title>att-icons</title><g id="51b786de-a79d-4dcf-861d-83e187eb5673" data-name="Arrow 26"><polygon class="cfd48f2b-bc29-4f12-bbfd-0f87ec91ecc1" points="211 133.3 192.6 133.3 192.6 124.2 162 141.9 192.6 159.5 192.6 150.4 211 150.4 211 133.3"/></g><path class="cfd48f2b-bc29-4f12-bbfd-0f87ec91ecc1" d="M132,120.8V104.2c0-16.8-8.4-27.2-21.8-27.2H77V40.4A20.1,20.1,0,0,0,95.2,20.6,19.9,19.9,0,1,0,73,40.4V77H48.5C32.9,77,18,90,18,104.2v16.6a19.9,19.9,0,1,0,22.2,19.8A20.1,20.1,0,0,0,22,120.8V104.2C22,92.2,35.2,81,48.5,81h61.8c13.3,0,17.8,11.7,17.8,23.2v16.6a19.9,19.9,0,1,0,22.2,19.8A20.1,20.1,0,0,0,132,120.8Z"/><circle class="68a8868d-d5fe-46f8-af97-ad0cfbc0230e" cx="75.4" cy="20.6" r="15.9"/><circle class="68a8868d-d5fe-46f8-af97-ad0cfbc0230e" cx="20.4" cy="140.6" r="15.9"/><circle class="ce0fe990-689e-4964-bdbf-19582dcd087c" cx="130.4" cy="140.6" r="15.9"/></svg>