<svg data-name="Layer 1" xmlns="http://www.w3.org/2000/svg" xmlns:xlink="http://www.w3.org/1999/xlink" viewBox="0 0 22 22"><defs><style>.cls-1,.cls-5{fill:none;}.cls-1,.cls-4,.cls-5{stroke:#3e76c0;stroke-miterlimit:10;stroke-width:0.25px;}.cls-1{clip-rule:evenodd;}.cls-2{fill:#3e76c0;}.cls-3{clip-path:url(#clip-path);}.cls-4{fill:#4178be;}.cls-5{fill-rule:evenodd;}.cls-6{clip-path:url(#clip-path-2);}</style><clipPath id="clip-path"><path class="cls-1" d="M12.57,17.25H9.45l-.45-2a7,7,0,0,1-.88-.48l-2,.64L4.52,12.84l1.57-1.36A4.25,4.25,0,0,1,6,11a4.59,4.59,0,0,1,0-.48L4.5,9.16,6.12,6.55l2,.64A4.24,4.24,0,0,1,9,6.71l.47-2h3.11l.45,2a5.27,5.27,0,0,1,.88.48l2-.64L17.5,9.16l-1.58,1.36A4.25,4.25,0,0,1,16,11c0,.14,0,.3,0,.48l1.58,1.36-1.62,2.61-2-.64a4.24,4.24,0,0,1-.88.48Zm-2.36-.94h1.6l.4-1.71.23-.09a4,4,0,0,0,1.08-.58l.2-.16,1.75.57L16.28,13l-1.37-1.18,0-.25a3.17,3.17,0,0,0,0-1.17l0-.28L16.28,9l-.81-1.31-1.75.57-.2-.16a4,4,0,0,0-1.08-.58l-.23-.09-.4-1.71h-1.6L9.81,7.4l-.23.09a4,4,0,0,0-1.08.58l-.2.16L6.55,7.66,5.72,9l1.37,1.18,0,.25a3.17,3.17,0,0,0,0,1.17l0,.25L5.72,13l.81,1.31,1.75-.57.2.16a4,4,0,0,0,1.08.58l.23.09Z"/></clipPath><clipPath id="clip-path-2"><path class="cls-1" d="M11,13a2,2,0,1,1,2-2,2,2,0,0,1-2,2m0-3.06A1.06,1.06,0,1,0,12.08,11,1.07,1.07,0,0,0,11,9.94"/></clipPath></defs><title>icon</title><path class="cls-2" d="M11,1A10,10,0,1,1,1,11,10,10,0,0,1,11,1m0-1A11,11,0,1,0,22,11,11,11,0,0,0,11,0Z"/><g class="cls-3"><rect class="cls-4" x="0.58" y="0.83" width="20.84" height="20.35"/></g><path class="cls-5" d="M12.57,17.25H9.45l-.45-2a7,7,0,0,1-.88-.48l-2,.64L4.52,12.84l1.57-1.36A4.25,4.25,0,0,1,6,11a4.59,4.59,0,0,1,0-.48L4.5,9.16,6.12,6.55l2,.64A4.24,4.24,0,0,1,9,6.71l.47-2h3.11l.45,2a5.27,5.27,0,0,1,.88.48l2-.64L17.5,9.16l-1.58,1.36A4.25,4.25,0,0,1,16,11c0,.14,0,.3,0,.48l1.58,1.36-1.62,2.61-2-.64a4.24,4.24,0,0,1-.88.48Zm-2.36-.94h1.6l.4-1.71.23-.09a4,4,0,0,0,1.08-.58l.2-.16,1.75.57L16.28,13l-1.37-1.18,0-.25a3.17,3.17,0,0,0,0-1.17l0-.28L16.28,9l-.81-1.31-1.75.57-.2-.16a4,4,0,0,0-1.08-.58l-.23-.09-.4-1.71h-1.6L9.81,7.4l-.23.09a4,4,0,0,0-1.08.58l-.2.16L6.55,7.66,5.72,9l1.37,1.18,0,.25a3.17,3.17,0,0,0,0,1.17l0,.25L5.72,13l.81,1.31,1.75-.57.2.16a4,4,0,0,0,1.08.58l.23.09Z"/><g class="cls-6"><rect class="cls-4" x="5.05" y="5.08" width="11.91" height="11.83"/></g><path class="cls-5" d="M11,13a2,2,0,1,1,2-2,2,2,0,0,1-2,2m0-3.06A1.06,1.06,0,1,0,12.08,11,1.07,1.07,0,0,0,11,9.94"/></svg>
