<svg id="4bd0203d-b335-41e2-b105-9983dce2ea07" data-name="Layer 1" xmlns="http://www.w3.org/2000/svg" viewBox="0 0 201.2 166.8"><defs><style>.\39 db1c62a-4397-41f6-bfb2-b54c2bb0ce25{fill:#4c4d53;}.e8c9b60a-8c10-4711-be4d-232a19885586{fill:#8cc63f;}.\34 ebdfe5c-dc86-48f8-9b05-2855dbdf478a{fill:#999;}</style></defs><title>att-icons</title><path class="9db1c62a-4397-41f6-bfb2-b54c2bb0ce25" d="M131,121.3V104.7c0-16.8-8.2-27.2-21.5-27.2H76V40.9A20.2,20.2,0,0,0,94.3,21.1,19.8,19.8,0,0,0,74.5,1.2,20.1,20.1,0,0,0,54.4,21.1,19.8,19.8,0,0,0,72,40.9V77.5H47.7c-15.5,0-30.7,13-30.7,27.2v16.6A19.7,19.7,0,0,0-.5,141.1a20,20,0,0,0,20,19.9,19.8,19.8,0,0,0,19.7-19.9A20.2,20.2,0,0,0,21,121.3V104.7c0-12,13.5-23.2,26.7-23.2h61.8c13.3,0,17.5,11.7,17.5,23.2v16.6a19.7,19.7,0,0,0-17.5,19.8,20,20,0,0,0,20,19.9,19.8,19.8,0,0,0,19.7-19.9A20.2,20.2,0,0,0,131,121.3Z"/><g id="ef0d3b16-431a-4a30-b1a5-ef1c8aa37c6c" data-name="Arrow 26"><polygon class="9db1c62a-4397-41f6-bfb2-b54c2bb0ce25" points="156.3 14.1 137.9 14.1 137.9 5 107.3 22.6 137.9 40.3 137.9 31.1 156.3 31.1 156.3 14.1"/></g><circle class="e8c9b60a-8c10-4711-be4d-232a19885586" cx="74.6" cy="21.1" r="15.9"/><circle class="4ebdfe5c-dc86-48f8-9b05-2855dbdf478a" cx="19.6" cy="141.1" r="15.9"/><circle class="4ebdfe5c-dc86-48f8-9b05-2855dbdf478a" cx="129.6" cy="141.1" r="15.9"/></svg>