<svg id="224205d6-0ff0-458d-aca7-3e36c4620f1d" data-name="Layer 1" xmlns="http://www.w3.org/2000/svg" viewBox="0 0 24 24"><defs><style>.\37 e816770-abcc-4590-a59c-ae2662a09f52{fill:#3b6caa;}</style></defs><title>att-icons</title><path class="7e816770-abcc-4590-a59c-ae2662a09f52" d="M14.5,0.1L9.9,4.6l4.5,4.5,1-1L12.5,5.3h2.7a6.8,6.8,0,0,1,0,13.6v1.4a8.1,8.1,0,1,0,0-16.3H12.5L15.4,1Z"/><path class="7e816770-abcc-4590-a59c-ae2662a09f52" d="M9.5,24l4.5-4.5L9.5,14.9l-1,1,2.9,2.9H8.7a6.8,6.8,0,0,1,0-13.6V3.9a8.1,8.1,0,1,0,0,16.3h2.7L8.6,23Z"/><circle class="7e816770-abcc-4590-a59c-ae2662a09f52" cx="12" cy="12" r="2"/></svg>