<?xml version="1.0" encoding="UTF-8"?>
<svg width="20px" height="20px" viewBox="0 0 20 20" version="1.1" xmlns="http://www.w3.org/2000/svg" xmlns:xlink="http://www.w3.org/1999/xlink">
    <!-- Generator: Sketch 41.2 (35397) - http://www.bohemiancoding.com/sketch -->
    <title>User Profile</title>
    <desc>Created with Sketch.</desc>
    <defs></defs>
    <g id="Symbols" stroke="none" stroke-width="1" fill="none" fill-rule="evenodd">
        <g id="profile-menu-closed" transform="translate(-10.000000, -12.000000)" fill="#EFEFEF">
            <g id="Profile-nav-icon-(gray10-50)---20px">
                <g transform="translate(10.000000, 12.000000)">
                    <g id="Page-1">
                        <path d="M10,10.8 C8.2,10.8 6.7,9.3 6.7,7.5 C6.7,5.7 8.2,4.1 10,4.1 C11.8,4.1 13.3,5.6 13.3,7.4 C13.3,9.2 11.8,10.8 10,10.8 M10,2.9 C7.5,2.9 5.5,4.9 5.5,7.4 C5.5,9.9 7.5,12 10,12 C12.5,12 14.5,10 14.5,7.5 C14.5,5 12.5,2.9 10,2.9" id="Fill-1"></path>
                        <path d="M16,16.4 L16,14.9 C16,13.9 15.1,13 14,13 L6,13 C4.9,13 4,13.9 4,14.9 L4,16.4 C2.3,14.8 1.2,12.5 1.2,10 C1.2,5.1 5.1,1.2 10,1.2 C14.9,1.2 18.8,5.1 18.8,10 C18.8,12.5 17.7,14.8 16,16.4 M10,-3.55271368e-15 C4.5,-3.55271368e-15 0,4.5 0,10 C0,15.5 4.5,20 10,20 C15.5,20 20,15.5 20,10 C20,4.5 15.5,-3.55271368e-15 10,-3.55271368e-15" id="Fill-3"></path>
                    </g>
                </g>
            </g>
        </g>
    </g>
</svg>