<svg id="8fe696d2-7afa-4e94-a760-0058e3da5c62" data-name="Layer 1" xmlns="http://www.w3.org/2000/svg" viewBox="0 0 211 166.8"><defs><style>.a144e33f-c38a-43ae-9c63-645c7c8044ea{fill:#4c4d53;}.\35 bec16ce-f0bf-4a9d-8ccc-2ac93c87581f{fill:#999;}.\37 f5fda19-486c-4341-bcf4-d4201424ba47{fill:#8cc63f;}</style></defs><title>att-icons</title><g id="bd2a2c57-7bc5-4c14-b9d1-906ab9f22926" data-name="Arrow 26"><polygon class="a144e33f-c38a-43ae-9c63-645c7c8044ea" points="211 133.3 192.6 133.3 192.6 124.2 162 141.9 192.6 159.5 192.6 150.4 211 150.4 211 133.3"/></g><path class="a144e33f-c38a-43ae-9c63-645c7c8044ea" d="M132,120.8V104.2c0-16.8-8.4-27.2-21.8-27.2H77V40.4A20.1,20.1,0,0,0,95.2,20.6,19.9,19.9,0,1,0,73,40.4V77H48.5C32.9,77,18,90,18,104.2v16.6a19.9,19.9,0,1,0,22.2,19.8A20.1,20.1,0,0,0,22,120.8V104.2C22,92.2,35.2,81,48.5,81h61.8c13.3,0,17.8,11.7,17.8,23.2v16.6a19.9,19.9,0,1,0,22.2,19.8A20.1,20.1,0,0,0,132,120.8Z"/><circle class="5bec16ce-f0bf-4a9d-8ccc-2ac93c87581f" cx="75.4" cy="20.6" r="15.9"/><circle class="5bec16ce-f0bf-4a9d-8ccc-2ac93c87581f" cx="20.4" cy="140.6" r="15.9"/><circle class="7f5fda19-486c-4341-bcf4-d4201424ba47" cx="130.4" cy="140.6" r="15.9"/></svg>