<?xml version="1.0" encoding="UTF-8"?>
<svg width="20px" height="20px" viewBox="0 0 20 20" version="1.1" xmlns="http://www.w3.org/2000/svg" xmlns:xlink="http://www.w3.org/1999/xlink">
    <!-- Generator: Sketch 41.2 (35397) - http://www.bohemiancoding.com/sketch -->
    <title>Help</title>
    <desc>Created with Sketch.</desc>
    <defs></defs>
    <g stroke="none" stroke-width="1" fill="none" fill-rule="evenodd">
        <g transform="translate(-10.000000, -12.000000)" fill="#EFEFEF">
            <g>
                <g transform="translate(10.000000, 12.000000)">
                    <g>
                        <path d="M8.50095238,15.4973333 L10.2380952,15.4973333 L10.2380952,13.7601905 L8.50095238,13.7601905 L8.50095238,15.4973333 Z M11.9761905,4.93447619 C11.3504762,4.3087619 10.447619,4.03066667 9.3352381,4.03066667 C8.29333333,4.03066667 7.45904762,4.3087619 6.83333333,4.86495238 C6.20761905,5.42114286 5.79142857,6.25447619 5.65238095,7.29733333 L5.65238095,7.43638095 L7.32,7.64495238 L7.32,7.50590476 C7.45904762,6.81066667 7.66761905,6.25447619 8.0152381,5.90685714 C8.36285714,5.56019048 8.77904762,5.42114286 9.3352381,5.42114286 C9.89142857,5.42114286 10.3085714,5.62971429 10.6561905,5.97638095 C11.0028571,6.324 11.2114286,6.74114286 11.2114286,7.22780952 C11.2114286,7.50590476 11.1419048,7.71447619 11.0028571,7.92304762 C10.8647619,8.13161905 10.5866667,8.47828571 10.1695238,8.82590476 C9.68285714,9.24304762 9.4047619,9.59066667 9.19619048,9.7992381 C8.91809524,10.0773333 8.77904762,10.4249524 8.64,10.7020952 C8.50095238,11.1192381 8.43238095,11.536381 8.43238095,12.0230476 L8.43238095,12.5792381 L10.0304762,12.5792381 L10.0304762,12.4401905 C10.0304762,11.9535238 10.1,11.6754286 10.1695238,11.3973333 C10.2390476,11.1887619 10.3085714,10.9801905 10.447619,10.8411429 C10.5866667,10.6325714 10.8647619,10.3554286 11.2809524,10.0078095 C11.9761905,9.38209524 12.3933333,8.89542857 12.6019048,8.47828571 C12.8104762,8.06209524 12.9495238,7.57542857 12.9495238,7.0887619 C13.0190476,6.25447619 12.6714286,5.56019048 11.9761905,4.93447619 L11.9761905,4.93447619 Z"></path>
                        <path d="M9.53247619,17.7031429 C5.03819048,17.7031429 1.362,14.026 1.362,9.53266667 C1.362,5.03838095 5.03819048,1.36219048 9.53247619,1.36219048 C14.0267619,1.36219048 17.7029524,5.03838095 17.7029524,9.53266667 C17.7029524,14.026 14.0267619,17.7031429 9.53247619,17.7031429 M9.53247619,0.000285714286 C4.28961905,0.000285714286 9.52380942e-05,4.28980952 9.52380942e-05,9.53266667 C9.52380942e-05,14.7755238 4.28961905,19.0650476 9.53247619,19.0650476 C14.7753333,19.0650476 19.0648571,14.7755238 19.0648571,9.53266667 C19.0648571,4.28980952 14.7753333,0.000285714286 9.53247619,0.000285714286"></path>
                    </g>
                </g>
            </g>
        </g>
    </g>
</svg>
