<svg data-name="Layer 1" xmlns="http://www.w3.org/2000/svg" viewBox="0 0 24 24"><defs><style>.\39 0e9a13f-788a-46dd-a248-cffcdf7470be{fill:#3b6caa;}</style></defs><title>att-icons</title><path class="90e9a13f-788a-46dd-a248-cffcdf7470be" d="M14,17H2.6C1.1,17,0,19.3,0,20.9V23H16V20.9C16,19.3,15.6,17,14,17Z"/><path class="90e9a13f-788a-46dd-a248-cffcdf7470be" d="M22.6,5a4.2,4.2,0,0,0-.1-0.7l1.3-1.2L22.8,1.3l-1.6.5a3.7,3.7,0,0,0-1.3-.5L19.5,0H17.3L17,1.3a3.9,3.9,0,0,0-1.3.7l-1.6-.6L12.9,3.2l1.3,1.2a4.1,4.1,0,0,0-.1.7,4.2,4.2,0,0,0,.1.7L12.9,6.9l1.1,1.9,1.6-.5a5,5,0,0,0,1.3,1L17.3,11h2.2l0.4-1.8a4.6,4.6,0,0,0,1.3-.9l1.6,0.5,1.1-1.9L22.6,5.7A4.4,4.4,0,0,0,22.6,5ZM19.8,5a1.4,1.4,0,1,1-1.4-1.4A1.4,1.4,0,0,1,19.8,5Z"/><path class="90e9a13f-788a-46dd-a248-cffcdf7470be" d="M15.5,9.9l-0.7.2A6.6,6.6,0,1,1,8.3,2.9a6.5,6.5,0,0,1,3,.8l0.6-.9h0a7.6,7.6,0,1,0,4,7.4Z"/></svg>
