<?xml version="1.0" encoding="UTF-8"?>
<svg width="26px" height="68px" viewBox="0 0 26 68" version="1.1" xmlns="http://www.w3.org/2000/svg" xmlns:xlink="http://www.w3.org/1999/xlink">
    <!-- Generator: Sketch 42 (36781) - http://www.bohemiancoding.com/sketch -->
    <title>Group</title>
    <desc>Created with Sketch.</desc>
    <defs></defs>
    <g stroke="none" stroke-width="1" fill="none" fill-rule="evenodd">
        <g transform="translate(-121.000000, -397.000000)" stroke-width="2">
            <g transform="translate(39.000000, 267.000000)">
                <g transform="translate(83.000000, 130.000000)">
                    <path d="M12,0 L12,41.8013667" stroke="#979797" stroke-dasharray="2"></path>
                    <path d="M23.5809431,55.351584 C23.5809431,61.7327349 18.4033923,66.9049896 12.0157076,66.9049896 C5.62802282,66.9049896 0.449272759,61.7327349 0.449272759,55.351584 C0.449272759,48.970433 5.62802282,43.7981783 12.0157076,43.7981783 C18.4033923,43.7981783 23.5809431,48.970433 23.5809431,55.351584"" stroke="#C7C7C7" fill="#C7C7C7"></path>
                    <path d="M23.5809431,55.351584 C23.5809431,61.7327349 18.4033923,66.9049896 12.0157076,66.9049896 C5.62802282,66.9049896 0.449272759,61.7327349 0.449272759,55.351584 C0.449272759,48.970433 5.62802282,43.7981783 12.0157076,43.7981783 C18.4033923,43.7981783 23.5809431,48.970433 23.5809431,55.351584 Z" stroke="#AEAEAE"></path>
                </g>
            </g>
        </g>
    </g>
</svg>
