<svg id="cb53cd78-70c2-4ead-8eb1-fb80f87e5b6c" data-name="Layer 1" xmlns="http://www.w3.org/2000/svg" viewBox="0 0 24 24">
  <defs>
    <style>
      .acabe604-cf32-4347-bf27-86a06ccb660a {
        fill: #4D4D4D;
      }
    </style>
  </defs>
  <title>Squad Team</title><path class="acabe604-cf32-4347-bf27-86a06ccb660a" d="M5.1,18A4.3,4.3,0,1,0,.9,13.7,4.3,4.3,0,0,0,5.1,18Zm0-6.9a2.6,2.6,0,1,1-2.6,2.6A2.6,2.6,0,0,1,5.1,11.1Z"/><path class="acabe604-cf32-4347-bf27-86a06ccb660a" d="M14.6,13.7a4.3,4.3,0,1,0,4.3-4.3A4.3,4.3,0,0,0,14.6,13.7Zm4.3-2.6a2.6,2.6,0,1,1-2.6,2.6A2.6,2.6,0,0,1,18.9,11.1Z"/><path class="acabe604-cf32-4347-bf27-86a06ccb660a" d="M16.3,4.3A4.3,4.3,0,1,0,12,8.6,4.3,4.3,0,0,0,16.3,4.3ZM12,6.9a2.6,2.6,0,1,1,2.6-2.6A2.6,2.6,0,0,1,12,6.9Z"/><path class="acabe604-cf32-4347-bf27-86a06ccb660a" d="M8.6,19.7H1.7A1.7,1.7,0,0,0,0,21.4V24H10.3V21.4A1.7,1.7,0,0,0,8.6,19.7Z"/><path class="acabe604-cf32-4347-bf27-86a06ccb660a" d="M22.3,19.7H15.4a1.7,1.7,0,0,0-1.7,1.7V24H24V21.4A1.7,1.7,0,0,0,22.3,19.7Z"/></svg>
