<svg id="a69b19f0-aa1e-4e1e-a037-e4f865d3f9cd" data-name="Layer 1" xmlns="http://www.w3.org/2000/svg" viewBox="0 0 39.3 39.3"><defs><style>.\31 69e23eb-a309-4ae4-bbe5-3f3b92b6af10,.\38 1a7fed1-ed1c-496b-8a9f-9d3f8b23d066{fill:#fff;}.\38 1a7fed1-ed1c-496b-8a9f-9d3f8b23d066{fill-rule:evenodd;}</style></defs><title>Team Members</title><path class="169e23eb-a309-4ae4-bbe5-3f3b92b6af10" d="M20.3,38a19,19,0,1,1,19-19A19,19,0,0,1,20.3,38Zm0-36a17,17,0,1,0,17,17A17,17,0,0,0,20.3,2Z"/><path class="169e23eb-a309-4ae4-bbe5-3f3b92b6af10" d="M20.3,38a19,19,0,1,1,19-19A19,19,0,0,1,20.3,38Zm0-36a17,17,0,1,0,17,17A17,17,0,0,0,20.3,2Z"/><path class="81a7fed1-ed1c-496b-8a9f-9d3f8b23d066" d="M22.9,21.9v6.8H17.5V21.9H17.2a0.9,0.9,0,0,1-.9-0.9q0-2.8,0-5.6a0.9,0.9,0,0,1,.9-0.9h6.1a0.9,0.9,0,0,1,.9.8v0.2q0,2.6,0,5.2a1,1,0,0,1-.8,1.1H22.9"/><path class="81a7fed1-ed1c-496b-8a9f-9d3f8b23d066" d="M15,14.7a4,4,0,0,0-.2,1.8c0,1.6,0,3.2,0,4.7a2.2,2.2,0,0,0,1.1,1.9,0.3,0.3,0,0,1,.1.2q0,2.7,0,5.4V29H12.2V22.2H11.8a0.9,0.9,0,0,1-.9-0.9q0-2.8,0-5.5a0.9,0.9,0,0,1,.9-0.9H15"/><path class="81a7fed1-ed1c-496b-8a9f-9d3f8b23d066" d="M14.6,13.6a2.2,2.2,0,1,1,2.1-2.2,2.2,2.2,0,0,1-2.1,2.2"/><path class="81a7fed1-ed1c-496b-8a9f-9d3f8b23d066" d="M23.5,11.2a2.1,2.1,0,1,1,2.1,2.2,2.1,2.1,0,0,1-2.1-2.2"/><path class="81a7fed1-ed1c-496b-8a9f-9d3f8b23d066" d="M18.1,11.2a2.1,2.1,0,1,1,2.1,2.2,2.1,2.1,0,0,1-2.1-2.2"/><path class="81a7fed1-ed1c-496b-8a9f-9d3f8b23d066" d="M28.9,14.5a0.9,0.9,0,0,1,.8.9q0,2.8,0,5.5a0.9,0.9,0,0,1-1,1H28.4v6.8h-4V28.5q0-2.6,0-5.2a0.3,0.3,0,0,1,.2-0.3,2.2,2.2,0,0,0,1.2-2c0-1.9,0-3.8,0-5.7a4.4,4.4,0,0,0-.2-0.8h3.3Z"/></svg>