<svg data-name="Layer 1" xmlns="http://www.w3.org/2000/svg" viewBox="0 0 39.3 39.3"><defs><style>.f112dc07-8d60-441d-8ed5-9f3c3ffbe435{fill:#fff;}</style></defs><title>att-icons</title><path class="f112dc07-8d60-441d-8ed5-9f3c3ffbe435" d="M19,38A19,19,0,1,1,38,19,19,19,0,0,1,19,38ZM19,2A17,17,0,1,0,36,19,17,17,0,0,0,19,2Z"/><rect class="f112dc07-8d60-441d-8ed5-9f3c3ffbe435" x="11" y="24" width="2" height="5"/><rect class="f112dc07-8d60-441d-8ed5-9f3c3ffbe435" x="15" y="22" width="2" height="7"/><rect class="f112dc07-8d60-441d-8ed5-9f3c3ffbe435" x="20" y="20" width="2" height="9"/><rect class="f112dc07-8d60-441d-8ed5-9f3c3ffbe435" x="24" y="17" width="2" height="12"/><polygon class="f112dc07-8d60-441d-8ed5-9f3c3ffbe435" points="21 9 21 11 23.1 11 23.1 11.4 20 15.7 15 17.7 9.5 20.7 10.5 22.3 15.8 19.5 21 17.4 24 13.3 24 15 26 15 26 9 21 9"/></svg>
