<svg id="41267c14-1adf-4d19-bfbd-5431fd037bcf" data-name="Layer 1" xmlns="http://www.w3.org/2000/svg" viewBox="0 0 24 24">
  <defs>
    <style>
      .\37 dd383a8-2e0f-4878-bcf5-0d592327c4d4 {
        <!-- fill: #3b6caa; -->
      }
    </style>
  </defs>
  <title>att-icons</title>
  <path id="5f6454c1-6bb9-4cd1-9b0b-d6c446aa880b" data-name="&lt;Compound Path&gt;" class="7dd383a8-2e0f-4878-bcf5-0d592327c4d4" d="M12,0A11.9,11.9,0,1,0,23.9,11.9,12,12,0,0,0,12,0Zm0,22.3A10.4,10.4,0,1,1,22.4,11.9,10.4,10.4,0,0,1,12,22.3Z"/>
  <path class="7dd383a8-2e0f-4878-bcf5-0d592327c4d4" d="M18.1,12a6.1,6.1,0,0,0-.1-1L20,9.3,18.3,6.6,16,7.4a6.1,6.1,0,0,0-1.9-1.1L13.6,4H10.4L9.9,6.3A6.1,6.1,0,0,0,8,7.4L5.7,6.6,4,9.3,6,11a6.1,6.1,0,0,0-.1,1,6.2,6.2,0,0,0,.1,1L4,14.7l1.7,2.7L8,16.6a6.1,6.1,0,0,0,1.9,1.1L10.4,20h3.2l0.5-2.2A6.1,6.1,0,0,0,16,16.6l2.3,0.8L20,14.7,18.1,13a6.1,6.1,0,0,0,.1-1h0ZM12,14a2,2,0,1,1,2-2A2,2,0,0,1,12,14Z"/>
</svg>
