<?xml version="1.0" encoding="UTF-8"?>
<svg width="26px" height="76px" viewBox="0 0 26 76" version="1.1" xmlns="http://www.w3.org/2000/svg" xmlns:xlink="http://www.w3.org/1999/xlink">
    <!-- Generator: Sketch 42 (36781) - http://www.bohemiancoding.com/sketch -->
    <title>Group</title>
    <desc>Created with Sketch.</desc>
    <defs></defs>
    <g id="Squad-Level" stroke="none" stroke-width="1" fill="none" fill-rule="evenodd">
        <g id="Team-Setup-non-squad" transform="translate(-121.000000, -224.000000)" stroke-width="2">
            <g id="Page-1" transform="translate(39.000000, 97.000000)">
                <g id="Group" transform="translate(83.000000, 127.000000)">
                    <path d="M12,0 L12,51.5188679" id="Stroke-15-Copy" stroke="#4C4D53"></path>
                    <path d="M23.1316703,63.0722736 C23.1316703,69.4534245 17.9541196,74.6256792 11.5664348,74.6256792 C5.17875006,74.6256792 0,69.4534245 0,63.0722736 C0,56.6911226 5.17875006,51.5188679 11.5664348,51.5188679 C17.9541196,51.5188679 23.1316703,56.6911226 23.1316703,63.0722736" id="Fill-5-Copy" stroke="#979797" fill="#B2D1E2"></path>
                    <path d="M23.5809431,63.351584 C23.5809431,69.7327349 18.4033923,74.9049896 12.0157076,74.9049896 C5.62802282,74.9049896 0.449272759,69.7327349 0.449272759,63.351584 C0.449272759,56.970433 5.62802282,51.7981783 12.0157076,51.7981783 C18.4033923,51.7981783 23.5809431,56.970433 23.5809431,63.351584 Z" id="Stroke-7" stroke="#4C4D53"></path>
                </g>
            </g>
        </g>
    </g>
</svg>