<svg width="27px" height="27px" viewBox="0 0 27 27" version="1.1" xmlns="http://www.w3.org/2000/svg" xmlns:xlink="http://www.w3.org/1999/xlink"><defs></defs>
    <g id="ATT-7" stroke="none" stroke-width="1" fill="none" fill-rule="evenodd">
        <g id="Step--1-" transform="translate(-395.000000, -137.000000)">
            <g id="Group" transform="translate(396.000000, 138.000000)">
                <circle id="Oval" stroke="#3E76C0" stroke-width="2" cx="12.5" cy="12.5" r="12.5"></circle>
                <path d="M16.3293296,14.0317318 C15.3584092,14.0334687 14.4941254,14.6473066 14.1726512,15.5634637 L10.8273488,15.5634637 C10.7982459,15.4822819 10.7553574,15.4095246 10.7185959,15.332938 L15.3260453,10.7254886 C15.6293282,10.8763642 15.967075,10.9682681 16.3293296,10.9682681 C17.5982578,10.9682681 18.6269274,9.93959858 18.6269274,8.67067037 C18.6269274,7.40174216 17.5982578,6.3730726 16.3293296,6.3730726 C15.3584092,6.3748095 14.4941254,6.98864742 14.1726512,7.90480445 L10.8273488,7.90480445 C10.5058746,6.98864742 9.64159077,6.3748095 8.67067039,6.3730726 C7.40174218,6.3730726 6.37307262,7.40174216 6.37307262,8.67067037 C6.37307262,9.93959858 7.40174218,10.9682681 8.67067039,10.9682681 C9.64159077,10.9665312 10.5058746,10.3526933 10.8273488,9.43653629 L14.1718853,9.43653629 C14.1956272,9.50240076 14.2316229,9.56137244 14.2607258,9.62417344 L9.63183212,14.2530671 C9.33193593,14.1086019 9.00354628,14.0329807 8.67067039,14.0317318 C7.40174218,14.0317318 6.37307262,15.0604014 6.37307262,16.3293296 C6.37307262,17.5982578 7.40174218,18.6269274 8.67067039,18.6269274 C9.64159077,18.6251905 10.5058746,18.0113526 10.8273488,17.0951955 L14.1718853,17.0951955 C14.4933596,18.0113526 15.3576434,18.6251905 16.3285637,18.6269274 C17.5974919,18.6271388 18.6263329,17.5986407 18.6265444,16.3297125 C18.6267559,15.0607843 17.5982578,14.0319433 16.3293296,14.0317318 Z M8.67067039,9.81946925 C8.03729927,9.81946925 7.5218715,9.30404149 7.5218715,8.67067037 C7.5218715,8.03729925 8.03729927,7.52187148 8.67067039,7.52187148 C9.3040415,7.52187148 9.81946927,8.03729925 9.81946927,8.67067037 C9.81946927,9.30404149 9.3040415,9.81946925 8.67067039,9.81946925 Z M16.3293296,7.52187148 C16.9627007,7.52187148 17.4781285,8.03729925 17.4781285,8.67067037 C17.4781285,9.30404149 16.9627007,9.81946925 16.3293296,9.81946925 C15.6959585,9.81946925 15.1805307,9.30404149 15.1805307,8.67067037 C15.1805307,8.03729925 15.6959585,7.52187148 16.3293296,7.52187148 Z M8.67067039,17.4781285 C8.03729927,17.4781285 7.5218715,16.9627007 7.5218715,16.3293296 C7.5218715,15.6959585 8.03729927,15.1805307 8.67067039,15.1805307 C9.3040415,15.1805307 9.81946927,15.6959585 9.81946927,16.3293296 C9.81946927,16.9627007 9.3040415,17.4781285 8.67067039,17.4781285 Z" id="Shape" fill="#3E76C0" fill-rule="nonzero"></path>
            </g>
        </g>
    </g>
</svg>
