<?xml version="1.0" encoding="UTF-8"?>
<svg width="20px" height="20px" viewBox="0 0 20 20" version="1.1" xmlns="http://www.w3.org/2000/svg" xmlns:xlink="http://www.w3.org/1999/xlink">
    <!-- Generator: Sketch 41.2 (35397) - http://www.bohemiancoding.com/sketch -->
    <title>API Key</title>
    <desc>Created with Sketch.</desc>
    <defs></defs>
    <g stroke="none" stroke-width="1" fill="none" fill-rule="evenodd">
        <g transform="translate(-49.000000, -225.000000)" fill="#FFFFFF">
            <g id="api_24" transform="translate(49.000000, 225.000000)">
                <g id="Api-Generation">
                    <polyline points="21 9 21 7 18 7 18 9 16 9 16 7 13 7 13 9 0 9 0 15 22 15 22 9"></polyline>
                    <path d="M10,2 L9,2 L9,0 L6,0 L6,2 L4,2 L4,0 L1,0 L1,2 L0,2 L0,8 L10,8 L10,2 Z M11,16 L22,16 L22,22 L11,22 L11,16 Z M0,16 L10,16 L10,22 L0,22 L0,16 Z"></path>
                </g>
            </g>
        </g>
    </g>
</svg>
