<svg id="1c8df9f9-4e36-4cab-ba07-e230244e27c1" data-name="Layer 1" xmlns="http://www.w3.org/2000/svg" viewBox="0 0 39.3 39.3"><defs><style>.\36 215d574-a9ad-43be-b49e-1a6d55c13cbc{fill:#fff;}.\31 3f382d8-3b48-4190-9158-47a30c56df6e{fill:none;}</style></defs><title>att-icons</title><path class="6215d574-a9ad-43be-b49e-1a6d55c13cbc" d="M20.3,38.7a19,19,0,1,1,19-19A19,19,0,0,1,20.3,38.7Zm0-36a17,17,0,1,0,17,17A17,17,0,0,0,20.3,2.7Z"/><rect class="13f382d8-3b48-4190-9158-47a30c56df6e" x="1.3" y="0.7" width="38" height="38"/><path class="6215d574-a9ad-43be-b49e-1a6d55c13cbc" d="M29.2,10.9a4.7,4.7,0,0,0-6.7,0l-2,2a4.7,4.7,0,0,0-1.4,3.3,4.9,4.9,0,0,0,.5,2.3l-0.3.3a4.9,4.9,0,0,0-2.3-.5,4.7,4.7,0,0,0-3.3,1.4l-2,2a4.7,4.7,0,0,0,6.7,6.7l2-2A4.7,4.7,0,0,0,21.8,23a4.9,4.9,0,0,0-.5-2.3l0.3-.3a4.9,4.9,0,0,0,2.3.5,4.7,4.7,0,0,0,3.3-1.4l2-2A4.7,4.7,0,0,0,29.2,10.9ZM20.5,23a3.4,3.4,0,0,1-1,2.4l-2,2a3.4,3.4,0,0,1-4.8-4.8l2-2a3.4,3.4,0,0,1,2.4-1l1.2,0.2-2.9,2.9,1.9,1.9,2.9-2.9A3.6,3.6,0,0,1,20.5,23Zm7.8-6.4-2,2a3.4,3.4,0,0,1-2.4,1l-1.2-.2,2.9-2.9-1.9-1.9-2.9,2.9a3.6,3.6,0,0,1-.2-1.2,3.4,3.4,0,0,1,1-2.4l2-2A3.4,3.4,0,0,1,28.2,16.7Z"/></svg>