<?xml version="1.0" encoding="UTF-8"?>
<svg width="12px" height="16px" viewBox="0 0 12 16" version="1.1" xmlns="http://www.w3.org/2000/svg" xmlns:xlink="http://www.w3.org/1999/xlink">
    <!-- Generator: Sketch 41.2 (35397) - http://www.bohemiancoding.com/sketch -->
    <title>Group 2</title>
    <desc>Created with Sketch.</desc>
    <defs></defs>
    <g id="Symbols" stroke="none" stroke-width="1" fill="none" fill-rule="evenodd">
        <g id="Locked">
            <g id="Group-2">
                <g id="secure_24" fill="#C0BFC0">
                    <path d="M10.1818182,4.36363636 C10.1818182,2.00727273 8.17454545,0 5.81818182,0 C3.45963636,0 1.45454545,2.00727273 1.45454545,4.36363636 L1.45454545,6.344 C0.552727273,7.36945455 0,8.70981818 0,10.1818182 C0,13.3934545 2.60654545,16 5.81818182,16 C9.02981818,16 11.6363636,13.3934545 11.6363636,10.1818182 C11.6363636,8.70909091 11.0836364,7.36727273 10.1818182,6.34327273 L10.1818182,4.36363636 Z M2.90909091,4.36363636 C2.90909091,2.81454545 4.26909091,1.45454545 5.81818182,1.45454545 C7.36727273,1.45454545 8.72727273,2.81454545 8.72727273,4.36363636 L8.72727273,5.14909091 C7.87054545,4.65163636 6.88,4.36363636 5.81818182,4.36363636 C4.75781818,4.36363636 3.76581818,4.65309091 2.90909091,5.14909091 L2.90909091,4.36363636 Z" id="Shape"></path>
                </g>
                <circle id="Oval-2" fill="#D8D8D8" cx="5.81818182" cy="10.1818182" r="1.45454545"></circle>
                <ellipse id="Oval-2-Copy" fill="#D8D8D8" cx="5.81818182" cy="12.3636364" rx="0.727272727" ry="1.45454545"></ellipse>
            </g>
        </g>
    </g>
</svg>